<svg width="16" height="16" viewBox="0 0 16 16" fill="none" xmlns="http://www.w3.org/2000/svg">
    <g clip-path="url(#hnl4x95yba)">
        <g clip-path="url(#9my2evywhb)" fill="#333">
            <path d="M4.957 11.396a.571.571 0 0 1-.425-.208.58.58 0 0 1-.109-.453l.426-1.81 6.058-6.04 2.037 2.136-5.822 5.714c-.135.127-.3.218-.48.263l-1.53.38-.155.018zm8.558-6.945L11.45 2.323l1.196-1.15a.616.616 0 0 1 .85 0l1.214 1.231a.634.634 0 0 1 .134.68.607.607 0 0 1-.134.199L13.524 4.45h-.01z"/>
            <path d="M3.997 15.09A2.997 2.997 0 0 1 1 12.091V4.766A3.006 3.006 0 0 1 3.997 1.76H8.09a.68.68 0 0 1 0 1.358H3.997a1.64 1.64 0 0 0-1.602 1.648v7.326a1.648 1.648 0 0 0 1.639 1.648h7.099a1.648 1.648 0 0 0 1.639-1.648v-4.98a.679.679 0 1 1 1.358 0v4.98a3.006 3.006 0 0 1-2.997 3.006l-7.136-.009z"/>
        </g>
    </g>
</svg>
