<svg width="16" height="16" viewBox="0 0 16 16" fill="none" xmlns="http://www.w3.org/2000/svg">
    <g clip-path="url(#rvbgcokhta)" fill="#333">
        <path d="M9.925 11.287H5.504c-.654 0-1.074-.48-1.074-1.225V2.223C4.43 1.477 4.85 1 5.505 1h8.858c.644 0 1.067.481 1.067 1.216v7.856c0 .733-.424 1.214-1.068 1.214H9.925zM5.44 2.15v7.98h8.982V2.15H5.44z"/>
        <path d="M3.278 6.716v1.138H2.152v5.705h7.985v-1.118h1.119c0 .464.044.923-.012 1.372-.065.527-.553.9-1.085.9-2.677.004-5.355.004-8.032 0a1.134 1.134 0 0 1-1.125-1.128C1 11.67 1 9.753 1.002 7.836c0-.586.482-1.094 1.062-1.117.397-.016.796-.003 1.214-.003z"/>
    </g>
</svg>
