<svg width="16" height="16" viewBox="0 0 16 16" fill="none" xmlns="http://www.w3.org/2000/svg">
    <path d="M3.478 16A3.228 3.228 0 0 1 .25 12.772v-8.07a3.228 3.228 0 0 1 3.228-3.228h.301V.667a.646.646 0 0 1 1.291 0v.85h5.8v-.85A.632.632 0 0 1 11.483 0a.667.667 0 0 1 .678.624v.85h.194a3.228 3.228 0 0 1 3.228 3.228v8.07A3.228 3.228 0 0 1 12.355 16H3.478zM1.54 12.772a1.937 1.937 0 0 0 1.937 1.937h8.888a1.937 1.937 0 0 0 1.936-1.937V5.853H1.552l-.01 6.919zm12.75-8.21a1.948 1.948 0 0 0-1.936-1.743h-.194v.301a.643.643 0 0 1-.624.668.634.634 0 0 1-.667-.614V2.82h-5.8v.301a.646.646 0 0 1-.624.668.635.635 0 0 1-.667-.614V2.82h-.301a1.926 1.926 0 0 0-1.926 1.743h12.74zm-3.593 7.683v-1.507h1.528v1.507h-1.528zm-3.508 0v-1.507h1.506v1.507H7.19zm-3.508 0v-1.507H5.19v1.507H3.682zm7.016-2.97v-1.55h1.528v1.55h-1.528zm-3.508 0v-1.55h1.506v1.55H7.19zm-3.508 0v-1.55H5.19v1.55H3.682z" fill="#333"/>
</svg>
