<svg width="16" height="16" viewBox="0 0 16 16" fill="none" xmlns="http://www.w3.org/2000/svg">
    <g clip-path="url(#luzsfdaw6a)">
        <path d="M7.065 8.077c-.063-.052-.112-.087-.154-.129a6779.42 6779.42 0 0 1-3.666-3.667c-.319-.319-.327-.751-.022-1.063a.69.69 0 0 1 .947-.056c.23.199.44.423.655.638l3.146 3.146c.033.033.06.071.106.125.222-.23.43-.448.643-.66 1.006-1.007 2.013-2.014 3.02-3.019.216-.216.466-.29.754-.196.292.095.455.31.497.611a.677.677 0 0 1-.13.498 1.267 1.267 0 0 1-.138.156L9.197 7.99a.996.996 0 0 1-.093.074l-.02.047c.035.02.077.031.104.059 1.136 1.14 2.27 2.28 3.403 3.423.258.259.313.585.15.88a.706.706 0 0 1-1.124.181c-.303-.283-.59-.583-.883-.876L8.132 9.172c-.02-.02-.043-.04-.07-.064l-.087.084-3.582 3.584a.708.708 0 0 1-1.01.024.707.707 0 0 1-.074-.97c.036-.044.074-.085.115-.124a9730 9730 0 0 1 3.518-3.52c.033-.032.067-.059.124-.11z" fill="#333"/>
    </g>
</svg>
