<svg width="16" height="16" viewBox="0 0 16 16" fill="none" xmlns="http://www.w3.org/2000/svg">
    <g clip-path="url(#wlzrpmtyxa)" fill="#333">
        <path d="M7.422 9.52V2.708a.663.663 0 0 1 .08-.39.629.629 0 0 1 .288-.265c.422-.2.865.118.867.624V9.502c.047-.046.079-.074.107-.103L11.04 7.04a.59.59 0 0 1 .811-.073.652.652 0 0 1 .09.938l-.071.076-3.343 3.469c-.315.327-.658.327-.976 0L4.178 7.956a.637.637 0 0 1-.166-.655.608.608 0 0 1 .175-.29.574.574 0 0 1 .299-.146.581.581 0 0 1 .565.194L6.752 8.83l.67.69zM8.031 13.998H3.165a.612.612 0 0 1-.458-.17.653.653 0 0 1-.015-.933.62.62 0 0 1 .468-.178h9.733a.614.614 0 0 1 .406.109c.12.083.208.206.251.348a.666.666 0 0 1-.111.58.621.621 0 0 1-.232.185.599.599 0 0 1-.289.054H9.747l-1.716.005z"/>
    </g>
</svg>
