<svg width="30" height="30" viewBox="0 0 30 30" fill="none" xmlns="http://www.w3.org/2000/svg">
    <path d="M15 14.92a.7.7 0 0 1-.2.49l-5 5.08a.71.71 0 0 1-1.152-.229.707.707 0 0 1 .153-.77l4.5-4.55c-1.08-1-3.54-3.35-4.52-4.48a.7.7 0 0 1 .574-1.172.71.71 0 0 1 .486.241c1.16 1.39 4.9 4.84 4.94 4.88a.68.68 0 0 1 .22.5v.01z" fill="#333"/>
    <path d="M21.398 14.92a.7.7 0 0 1-.2.49l-5 5.08a.7.7 0 0 1-1 0 .71.71 0 0 1 0-1l4.5-4.57c-1.08-1-3.54-3.35-4.52-4.48a.698.698 0 0 1 .06-1 .71.71 0 0 1 1 .07c1.21 1.38 4.91 4.83 4.95 4.87a.68.68 0 0 1 .22.5l-.01.04z" fill="#333"/>
</svg>
