<svg width="16" height="16" viewBox="0 0 16 16" fill="none" xmlns="http://www.w3.org/2000/svg">
    <g clip-path="url(#o6enm4q4la)" fill="#333">
        <path d="M2.615 4.775H1.591c-.345 0-.587-.219-.59-.53-.005-.319.239-.544.592-.545h3.164c.016-.32.021-.627.05-.932a3.57 3.57 0 0 1 .115-.66c.19-.652.675-.953 1.313-1.029 1.01-.12 2.027-.075 3.04-.048.236.008.47.034.7.08.69.132 1.099.556 1.185 1.255.053.433.065.87.097 1.334h3.202a.533.533 0 0 1 .542.544.536.536 0 0 1-.541.529c-.174.003-.348 0-.522 0h-.553V5c0 2.393.006 4.785-.007 7.178 0 .47-.044.938-.13 1.4-.148.767-.621 1.198-1.402 1.31a9.537 9.537 0 0 1-1.305.102c-1.694.011-3.387.011-5.081 0-.476 0-.95-.043-1.419-.129-.78-.152-1.207-.623-1.32-1.412a9.039 9.039 0 0 1-.099-1.254c-.01-2.403-.006-4.806-.006-7.21v-.21zm1.077.003v.128c0 2.449-.002 4.897.007 7.346 0 .362.054.724.095 1.085.032.278.2.45.479.482.366.042.735.093 1.103.095 1.755.01 3.51.01 5.266 0 .362-.002.725-.053 1.086-.096.279-.033.448-.201.478-.481.042-.39.094-.78.096-1.17.01-2.41.006-4.818.007-7.227V4.78l-8.617-.001zm6.473-1.087c-.014-.32-.026-.632-.043-.941-.026-.495-.128-.612-.626-.625A78.606 78.606 0 0 0 6.957 2.1c-.255 0-.51.052-.765.09a.27.27 0 0 0-.244.243c-.04.332-.069.666-.099 1-.007.086 0 .174 0 .26h4.316z"/>
        <path d="M5.31 9.348c0-.806-.002-1.613 0-2.418a.537.537 0 1 1 1.074.05v4.736c0 .345-.217.587-.528.591-.32.005-.547-.238-.547-.59V9.349zM7.461 9.35V6.984c0-.351.226-.596.544-.592.313.004.532.244.532.589v4.735c0 .353-.225.596-.544.593-.312-.003-.531-.245-.532-.59V9.352zM10.693 9.347v2.368c0 .353-.225.595-.544.592-.312-.003-.531-.245-.532-.588V6.983c0-.353.225-.596.545-.592.312.003.53.244.531.588v2.368z"/>
    </g>
</svg>
