<svg width="16" height="16" viewBox="0 0 16 16" fill="none" xmlns="http://www.w3.org/2000/svg">
    <g clip-path="url(#7ahmk82zya)" fill="#333">
        <path d="M12.28 0h2.405c.774 0 1.312.53 1.314 1.306.003 1.616.003 3.23 0 4.845-.003.73-.548 1.27-1.28 1.27-1.62.003-3.241.003-4.862 0-.735 0-1.277-.539-1.279-1.27-.004-1.615-.005-3.23-.002-4.845 0-.768.547-1.304 1.316-1.305h2.387zM9.94 1.36V6.06h4.693V1.36H9.94zM7.425 12.297v2.354c0 .824-.52 1.347-1.34 1.347H1.36c-.835 0-1.355-.516-1.357-1.348C0 13.08 0 11.511 0 9.94c0-.837.526-1.363 1.36-1.364h4.743c.785 0 1.319.528 1.321 1.315.004.802.002 1.604.001 2.406zm-1.36-2.354H1.37v4.693h4.698l-.002-4.693zM12.268 15.998H9.897c-.785-.001-1.316-.517-1.319-1.299a727.293 727.293 0 0 1 0-4.863 1.24 1.24 0 0 1 1.259-1.258c1.632-.005 3.264-.005 4.896 0a1.261 1.261 0 0 1 1.265 1.275c.002 1.621.002 3.242 0 4.863 0 .73-.542 1.274-1.272 1.282-.412.005-.825 0-1.237 0h-1.22zM14.64 9.94H9.942v4.693h4.698V9.939zM7.422 3.711v2.39c0 .784-.534 1.32-1.316 1.322-1.593.002-3.185.002-4.778 0-.799 0-1.325-.526-1.326-1.327-.003-1.599-.003-3.197 0-4.795C.002.537.54.003 1.307 0 2.91 0 4.514 0 6.117.002c.754 0 1.303.552 1.305 1.305V3.71zm-6.06 2.344h4.697V1.362H1.361v4.693z"/>
    </g>
</svg>
