<svg width="16" height="16" viewBox="0 0 16 16" fill="none" xmlns="http://www.w3.org/2000/svg">
    <g clip-path="url(#mn7er2rnca)" fill="#333">
        <path d="M11.13 7.9H8.2V4.6a.59.59 0 0 0-.17-.42A.64.64 0 0 0 7.6 4a.6.6 0 0 0-.42.18.6.6 0 0 0-.18.42v3.9a.56.56 0 0 0 .18.42.55.55 0 0 0 .41.18h3.54a.63.63 0 0 0 .43-.17.61.61 0 0 0 .17-.43.59.59 0 0 0-.17-.42.64.64 0 0 0-.43-.18z" stroke="#333" stroke-width=".2"/>
        <path d="M7.999 1.34a6.64 6.64 0 0 1 4.74 2 6.61 6.61 0 0 1 2 4.73 6.7 6.7 0 0 1-1.13 3.73 6.629 6.629 0 0 1-3 2.46 6.66 6.66 0 0 1-3.87.38 6.58 6.58 0 0 1-3.44-1.9 6.71 6.71 0 0 1-1.87-3.4 6.66 6.66 0 0 1 .38-3.87 6.73 6.73 0 0 1 2.47-3 6.67 6.67 0 0 1 3.72-1.13zm0-1.34c-1.576-.013-3.12.48-4.44 1.34a8 8 0 0 0-3.4 8.22 8 8 0 0 0 6.28 6.29c.514.1 1.036.15 1.56.15a7.85 7.85 0 0 0 3.06-.61 7.9 7.9 0 0 0 3.59-2.94A8 8 0 0 0 15.999 8a7.999 7.999 0 0 0-2.34-5.66A8 8 0 0 0 7.999 0z"/>
    </g>
    <!-- <defs>
        <clipPath id="mn7er2rnca">
            <path fill="#fff" d="M0 0h16v16H0z"/>
        </clipPath>
    </defs> -->
</svg>
