<svg width="20" height="20" viewBox="0 0 20 20" fill="none" xmlns="http://www.w3.org/2000/svg">
    <g clip-path="url(#9uwvcp4eia)" fill="#97A0B1">
        <path d="M13.772 7.08c0 .547-.004 1.094.004 1.64a.373.373 0 0 0 .092.231c1.123 1.196 1.62 2.612 1.48 4.244-.203 2.336-2.024 4.305-4.349 4.718-2.9.516-5.655-1.352-6.197-4.243-.334-1.786.15-3.36 1.39-4.693a.369.369 0 0 0 .114-.274c0-1.073-.024-2.148.014-3.22.06-1.665 1.382-3.14 3.02-3.424 2.081-.363 3.973.935 4.37 3.008.047.25.054.507.06.761.01.418.002.835.002 1.252zM5.77 12.662c-.009 2.345 1.903 4.268 4.254 4.276 2.352.01 4.272-1.9 4.282-4.266.01-2.346-1.901-4.265-4.255-4.271a4.264 4.264 0 0 0-4.281 4.261zM7.354 8.05c1.805-.957 3.571-.951 5.35-.014v-.143c0-.714.003-1.428 0-2.142-.012-1.41-.988-2.499-2.39-2.67-1.365-.168-2.737.835-2.888 2.202-.1.9-.054 1.818-.072 2.766z"/>
        <path d="M5.77 12.664a4.264 4.264 0 0 1 4.28-4.262c2.354.006 4.266 1.925 4.256 4.272-.01 2.366-1.926 4.274-4.282 4.265a4.272 4.272 0 0 1-4.254-4.275zm3.735 2.123h1.058c.004-.03.006-.04.006-.05 0-.678.005-1.354-.002-2.031a.31.31 0 0 1 .137-.282 1.05 1.05 0 0 0 .113-1.548 1.064 1.064 0 0 0-1.558 0 1.048 1.048 0 0 0 .112 1.548c.101.079.139.156.137.281-.007.69-.003 1.383-.003 2.08v.002z"/>
    </g>
</svg>
