<svg width="16" height="16" viewBox="0 0 16 16" fill="none" xmlns="http://www.w3.org/2000/svg">
    <g clip-path="url(#06x27xj1ca)" fill="#333" stroke="#333" stroke-width=".2">
        <path d="M15.461 7.082a2.761 2.761 0 0 0-1-2.14l-.75-.68-.53-.48-.93-.84c-.78-.7-1.56-1.41-2.36-2.1a2.61 2.61 0 0 0-2.06-.62 3.07 3.07 0 0 0-1.79.87l-2.41 2.23-.54.5-.53.48-.76.68a2.76 2.76 0 0 0-1 2.14v5.9a2.76 2.76 0 0 0 2.26 2.76c.163.01.327.01.49 0h9.15c.16.01.32.01.48 0a2.75 2.75 0 0 0 2.26-2.76l.02-5.89v-.05zm-1.28 5.87a1.54 1.54 0 0 1-.45 1.14 1.64 1.64 0 0 1-1.17.43h-8.84a1.64 1.64 0 0 1-1.17-.43 1.54 1.54 0 0 1-.45-1.14v-5.82a1.59 1.59 0 0 1 .59-1.27l.85-.77 3.4-3.08a1.74 1.74 0 0 1 1.24-.53 1.45 1.45 0 0 1 1 .36l2.71 2.48.57.52 1.14 1a1.61 1.61 0 0 1 .58 1.29v5.82z"/>
        <path d="M10.17 11.851a.624.624 0 0 0-.182-.469.697.697 0 0 0-.496-.18 256.652 256.652 0 0 0-3.14 0l.002.1v-.1a.7.7 0 0 0-.498.181.62.62 0 0 0-.183.465.603.603 0 0 0 .2.455c.127.111.3.17.5.17H7.921l1.546.001a.749.749 0 0 0 .5-.169.6.6 0 0 0 .202-.454z"/>
    </g>
</svg>
