<svg width="16" height="16" viewBox="0 0 16 16" fill="none" xmlns="http://www.w3.org/2000/svg">
    <g clip-path="url(#pskoe2e1ma)" fill="#333">
        <path d="M1.643 14.004a.643.643 0 0 1-.494-.233.681.681 0 0 1-.121-.578l.494-2.145 7.089-6.884 2.378 2.463L4.18 13.24a1.23 1.23 0 0 1-.56.307l-1.8.42a.543.543 0 0 1-.177 0v.037zm10.018-8.02L9.282 3.53l1.362-1.324a.718.718 0 0 1 .998 0l1.418 1.38a.746.746 0 0 1 .205.513.669.669 0 0 1-.215.494l-1.39 1.39zM14.44 14.404H7.09a.56.56 0 0 1 0-1.119h7.35a.56.56 0 1 1 0 1.12z"/>
    </g>
</svg>
