<svg width="20" height="20" viewBox="0 0 20 20" fill="none" xmlns="http://www.w3.org/2000/svg">
    <path d="M13.998 10.865c-.078-.082-.126-.138-.178-.19-.877-.88-1.757-1.761-2.638-2.641-.266-.266-.37-.575-.254-.936a.866.866 0 0 1 1.37-.402c.08.065.15.14.222.214l4.147 4.15c.44.441.445.934.011 1.369l-4.246 4.254c-.27.27-.577.388-.947.273a.866.866 0 0 1-.446-1.32c.057-.077.12-.15.19-.215.86-.862 1.72-1.723 2.581-2.583.063-.052.13-.1.201-.14l-.04-.076h-.233c-1.818 0-3.636.005-5.454 0-2.429-.007-4.485-1.58-5.094-3.921a6.034 6.034 0 0 1-.175-1.378c-.024-1.122-.01-2.244-.007-3.367 0-.498.266-.853.69-.937.564-.11 1.049.29 1.051.879.005 1.136 0 2.272 0 3.408.004 1.817 1.203 3.234 2.994 3.535.176.026.353.038.53.035 1.846.002 3.691.002 5.537 0 .047 0 .095-.006.188-.01z" fill="#97A0B1"/>
</svg>
