<svg width="21" height="20" viewBox="0 0 21 20" fill="none" xmlns="http://www.w3.org/2000/svg">
    <path d="M9.304 2.287a1.259 1.259 0 0 1 1.611-.818 1.26 1.26 0 0 1 .756.767l1.36 3.777a1.259 1.259 0 0 0 1.157.83l4.053.101A1.259 1.259 0 0 1 19.5 8.203a1.26 1.26 0 0 1-.503.982l-3.21 2.442a1.259 1.259 0 0 0-.44 1.36l1.145 3.85a1.258 1.258 0 0 1-1.914 1.398l-3.386-2.19a1.258 1.258 0 0 0-1.41 0l-3.36 2.303a1.258 1.258 0 0 1-1.914-1.397L5.654 13.1a1.259 1.259 0 0 0-.44-1.372l-3.21-2.429a1.259 1.259 0 0 1 .73-2.266l4.053-.1a1.259 1.259 0 0 0 1.183-.844l1.334-3.801z" fill="#FFC400"/>
</svg>
